<svg width="265" height="164" viewBox="0 0 265 164" fill="none" xmlns="http://www.w3.org/2000/svg">
<path d="M229.161 21.5052L209.921 49.6777H240.896L260 25.8815L229.161 21.5052Z" fill="#7EE2B0"/>
<path d="M168.166 43.9338L159.297 12.4791L123 4L136.373 37.3693L168.166 43.9338Z" fill="#7EE2B0"/>
<path d="M187.679 124.348V61.9861M187.679 124.348L209.921 133.511M187.679 124.348V142.674M187.679 124.348L165.028 133.511M187.679 124.348L209.921 161M187.679 61.9861L209.921 49.6777M187.679 61.9861L168.166 43.9338M148.653 25.8815L168.166 43.9338M232.163 37.3693L209.921 49.6777M209.921 49.6777L229.161 21.5052L260 25.8815L240.896 49.6777H209.921ZM168.166 43.9338L159.297 12.4791L123 4L136.373 37.3693L168.166 43.9338ZM209.921 142.674V133.511M209.921 133.511H229.161M187.679 161V142.674M187.679 142.674H168.166V152.521M168.166 152.521H159.297V161H168.166V152.521ZM142.376 142.674L165.028 133.511M165.028 133.511H142.376" stroke="#161616" stroke-width="5"/>
<path d="M24.832 120C21.4187 120 18.304 119.424 15.488 118.272C12.672 117.077 10.24 115.456 8.192 113.408C6.18667 111.36 4.62933 108.992 3.52 106.304C2.45333 103.573 1.92 100.672 1.92 97.6C1.92 94.528 2.45333 91.648 3.52 88.96C4.62933 86.2293 6.18667 83.84 8.192 81.792C10.24 79.744 12.672 78.144 15.488 76.992C18.304 75.7973 21.4187 75.2 24.832 75.2H30.592V80.64H25.024C22.592 80.64 20.352 81.0667 18.304 81.92C16.256 82.7733 14.464 83.968 12.928 85.504C11.4347 87.04 10.2613 88.832 9.408 90.88C8.55467 92.928 8.128 95.168 8.128 97.6C8.128 99.9893 8.55467 102.229 9.408 104.32C10.2613 106.368 11.4347 108.16 12.928 109.696C14.464 111.232 16.256 112.427 18.304 113.28C20.352 114.133 22.592 114.56 25.024 114.56H30.592V120H24.832ZM37.355 120V96.64C37.355 93.7387 38.1657 91.4773 39.787 89.856C41.451 88.192 43.7337 87.36 46.635 87.36H53.355V92.416H47.723C46.315 92.416 45.2057 92.8213 44.395 93.632C43.627 94.4427 43.243 95.5733 43.243 97.024V120H37.355ZM58.797 120V87.36H64.749V120H58.797ZM61.805 82.176C60.7383 82.176 59.7997 81.792 58.989 81.024C58.221 80.2133 57.837 79.2747 57.837 78.208C57.837 77.1413 58.221 76.224 58.989 75.456C59.7997 74.6453 60.7383 74.24 61.805 74.24C62.8717 74.24 63.789 74.6453 64.557 75.456C65.3677 76.224 65.773 77.1413 65.773 78.208C65.773 79.2747 65.3677 80.2133 64.557 81.024C63.789 81.792 62.8717 82.176 61.805 82.176ZM87.807 120.768C86.3563 120.768 85.0337 120.363 83.839 119.552C82.687 118.699 81.8337 117.504 81.279 115.968L70.655 87.36H77.119L86.591 113.792C86.7617 114.219 86.9537 114.517 87.167 114.688C87.3803 114.859 87.615 114.944 87.871 114.944C88.1697 114.944 88.4043 114.859 88.575 114.688C88.7883 114.517 88.9803 114.219 89.151 113.792L98.687 87.36H105.023L94.399 115.968C93.8017 117.504 92.927 118.699 91.775 119.552C90.623 120.363 89.3003 120.768 87.807 120.768ZM126.281 120.768C123.337 120.768 120.691 120.171 118.345 118.976C116.041 117.739 114.227 116.032 112.905 113.856C111.625 111.68 110.985 109.141 110.985 106.24V87.36H116.937V106.176C116.937 108.139 117.363 109.845 118.217 111.296C119.07 112.704 120.201 113.792 121.609 114.56C123.059 115.328 124.595 115.712 126.217 115.712C127.881 115.712 129.417 115.328 130.825 114.56C132.275 113.792 133.427 112.704 134.281 111.296C135.177 109.845 135.625 108.139 135.625 106.176V87.36H141.576V106.24C141.576 109.141 140.915 111.68 139.593 113.856C138.27 116.032 136.457 117.739 134.153 118.976C131.849 120.171 129.225 120.768 126.281 120.768ZM150.474 120V114.944H166.09C167.114 114.944 167.989 114.731 168.714 114.304C169.482 113.835 170.058 113.237 170.442 112.512C170.826 111.787 171.018 111.019 171.018 110.208C171.018 109.44 170.847 108.736 170.506 108.096C170.165 107.413 169.631 106.88 168.906 106.496C168.223 106.069 167.391 105.856 166.41 105.856H159.818C157.727 105.856 155.893 105.515 154.314 104.832C152.778 104.107 151.562 103.061 150.666 101.696C149.813 100.331 149.386 98.6667 149.386 96.704C149.386 95.04 149.791 93.504 150.602 92.096C151.413 90.688 152.543 89.5573 153.994 88.704C155.445 87.808 157.109 87.36 158.986 87.36H174.026V92.416H159.562C158.239 92.416 157.194 92.8213 156.426 93.632C155.658 94.4427 155.274 95.4027 155.274 96.512C155.274 97.5787 155.658 98.5173 156.426 99.328C157.237 100.096 158.367 100.48 159.818 100.48H166.09C168.437 100.48 170.399 100.864 171.978 101.632C173.599 102.357 174.815 103.424 175.626 104.832C176.479 106.24 176.906 107.968 176.906 110.016C176.906 111.765 176.479 113.408 175.626 114.944C174.773 116.437 173.578 117.653 172.042 118.592C170.549 119.531 168.799 120 166.794 120H150.474Z" fill="#161616"/>
<path d="M106.392 83.288C105.464 83.288 104.616 83.144 103.848 82.856C103.08 82.552 102.416 82.112 101.856 81.536C101.296 80.96 100.856 80.272 100.536 79.472C100.232 78.656 100.08 77.744 100.08 76.736C100.08 75.456 100.336 74.352 100.848 73.424C101.376 72.48 102.088 71.752 102.984 71.24C103.896 70.728 104.912 70.472 106.032 70.472C106.656 70.472 107.248 70.576 107.808 70.784C108.384 70.992 108.896 71.28 109.344 71.648C109.792 72.016 110.144 72.448 110.4 72.944H110.448V65.48H112.656V76.808C112.656 78.168 112.376 79.336 111.816 80.312C111.272 81.272 110.528 82.008 109.584 82.52C108.656 83.032 107.592 83.288 106.392 83.288ZM106.392 81.392C107.144 81.392 107.824 81.208 108.432 80.84C109.04 80.472 109.52 79.952 109.872 79.28C110.24 78.608 110.424 77.816 110.424 76.904C110.424 75.976 110.24 75.176 109.872 74.504C109.52 73.816 109.04 73.288 108.432 72.92C107.824 72.552 107.136 72.368 106.368 72.368C105.616 72.368 104.928 72.56 104.304 72.944C103.696 73.328 103.208 73.856 102.84 74.528C102.488 75.2 102.312 75.984 102.312 76.88C102.312 77.808 102.496 78.608 102.864 79.28C103.232 79.952 103.72 80.472 104.328 80.84C104.952 81.208 105.64 81.392 106.392 81.392ZM116.08 83V70.76H118.312V83H116.08ZM117.208 68.816C116.808 68.816 116.456 68.672 116.152 68.384C115.864 68.08 115.72 67.728 115.72 67.328C115.72 66.928 115.864 66.584 116.152 66.296C116.456 65.992 116.808 65.84 117.208 65.84C117.608 65.84 117.952 65.992 118.24 66.296C118.544 66.584 118.696 66.928 118.696 67.328C118.696 67.728 118.544 68.08 118.24 68.384C117.952 68.672 117.608 68.816 117.208 68.816ZM123.647 87.872V85.976H129.647C130.239 85.976 130.695 85.8 131.015 85.448C131.351 85.096 131.519 84.632 131.519 84.056V80.696H131.471C131.167 81.16 130.799 81.576 130.367 81.944C129.935 82.312 129.439 82.608 128.879 82.832C128.319 83.04 127.687 83.144 126.983 83.144C125.831 83.144 124.815 82.88 123.935 82.352C123.055 81.808 122.367 81.064 121.871 80.12C121.375 79.16 121.127 78.064 121.127 76.832C121.127 75.632 121.375 74.552 121.871 73.592C122.367 72.632 123.079 71.872 124.007 71.312C124.951 70.752 126.087 70.472 127.415 70.472C128.695 70.472 129.807 70.744 130.751 71.288C131.695 71.832 132.423 72.592 132.935 73.568C133.463 74.528 133.727 75.656 133.727 76.952V84.2C133.727 85.32 133.399 86.208 132.743 86.864C132.087 87.536 131.191 87.872 130.055 87.872H123.647ZM127.391 81.248C128.207 81.248 128.919 81.056 129.527 80.672C130.151 80.288 130.631 79.768 130.967 79.112C131.319 78.44 131.495 77.688 131.495 76.856C131.495 76.008 131.327 75.248 130.991 74.576C130.655 73.904 130.183 73.376 129.575 72.992C128.967 72.592 128.239 72.392 127.391 72.392C126.559 72.392 125.839 72.592 125.231 72.992C124.639 73.376 124.175 73.912 123.839 74.6C123.519 75.272 123.359 76.032 123.359 76.88C123.359 77.68 123.519 78.416 123.839 79.088C124.175 79.744 124.639 80.272 125.231 80.672C125.839 81.056 126.559 81.248 127.391 81.248ZM137.15 83V70.76H139.382V83H137.15ZM138.278 68.816C137.878 68.816 137.526 68.672 137.222 68.384C136.934 68.08 136.79 67.728 136.79 67.328C136.79 66.928 136.934 66.584 137.222 66.296C137.526 65.992 137.878 65.84 138.278 65.84C138.678 65.84 139.022 65.992 139.31 66.296C139.614 66.584 139.766 66.928 139.766 67.328C139.766 67.728 139.614 68.08 139.31 68.384C139.022 68.672 138.678 68.816 138.278 68.816ZM147.045 83C145.957 83 145.101 82.688 144.477 82.064C143.869 81.44 143.565 80.592 143.565 79.52V67.688H145.773V79.376C145.773 79.904 145.917 80.328 146.205 80.648C146.509 80.952 146.925 81.104 147.453 81.104H149.925V83H147.045ZM141.453 72.656V70.76H149.973V72.656H141.453ZM157.356 83.288C156.172 83.288 155.148 83.008 154.284 82.448C153.42 81.872 152.756 81.096 152.292 80.12C151.828 79.144 151.596 78.064 151.596 76.88C151.596 75.68 151.852 74.6 152.364 73.64C152.876 72.664 153.612 71.896 154.572 71.336C155.532 70.76 156.684 70.472 158.028 70.472C159.324 70.472 160.436 70.752 161.364 71.312C162.292 71.872 163.004 72.632 163.5 73.592C164.012 74.552 164.268 75.624 164.268 76.808V83H162.036V80.504H161.988C161.748 80.968 161.42 81.416 161.004 81.848C160.604 82.264 160.1 82.608 159.492 82.88C158.884 83.152 158.172 83.288 157.356 83.288ZM157.932 81.392C158.732 81.392 159.436 81.2 160.044 80.816C160.668 80.416 161.148 79.872 161.484 79.184C161.836 78.48 162.012 77.696 162.012 76.832C162.012 75.984 161.844 75.224 161.508 74.552C161.188 73.88 160.724 73.352 160.116 72.968C159.508 72.568 158.796 72.368 157.98 72.368C157.116 72.368 156.372 72.568 155.748 72.968C155.14 73.368 154.668 73.912 154.332 74.6C154.012 75.272 153.852 76.04 153.852 76.904C153.852 77.736 154.012 78.496 154.332 79.184C154.652 79.856 155.116 80.392 155.724 80.792C156.332 81.192 157.068 81.392 157.932 81.392ZM167.783 83V65.48H169.991V83H167.783Z" fill="#161616"/>
</svg>
