<svg width="161" height="173" viewBox="0 0 161 173" fill="none" xmlns="http://www.w3.org/2000/svg">
<path d="M57.1663 44.4338C57.1663 44.4338 58 22.5 48.2968 12.9791C38.5936 3.45819 3 2 3 2C3 2 17.745 31.3049 25.3725 37.8693C33 44.4338 57.1663 44.4338 57.1663 44.4338Z" fill="#7EE2B0"/>
<path d="M98.9213 50.1777C98.9213 50.1777 106.426 24.5105 118.161 22.0052C129.896 19.5 158 23.5 158 23.5C158 23.5 140 46.5 129.896 50.1777C119.793 53.8554 98.9213 50.1777 98.9213 50.1777Z" fill="#7EE2B0"/>
<path d="M57.1663 44.4338C57.1663 44.4338 58 22.5 48.2968 12.9791C38.5936 3.45819 3 2 3 2C3 2 17.745 31.3049 25.3725 37.8693C33 44.4338 57.1663 44.4338 57.1663 44.4338ZM57.1663 44.4338L76.6793 62.4861M57.1663 44.4338C57.1663 44.4338 30 19.5 37.6534 26.3815M98.9213 50.1777C98.9213 50.1777 106.426 24.5105 118.161 22.0052C129.896 19.5 158 23.5 158 23.5C158 23.5 140 46.5 129.896 50.1777C119.793 53.8554 98.9213 50.1777 98.9213 50.1777ZM98.9213 50.1777L76.6793 62.4861M98.9213 50.1777C98.9213 50.1777 131 32.5 121.163 37.8693M76.6793 124.848V62.4861M76.6793 124.848L98.9213 134.011M76.6793 124.848V143.174M76.6793 124.848L54.0279 134.011M76.6793 124.848L98.9213 161.5M98.9213 134.011V143.174M98.9213 134.011H118.161M76.6793 143.174V161.5M76.6793 143.174H57.1663V153.021M57.1663 153.021H48.2968V161.5H57.1663V153.021ZM54.0279 134.011L31.3765 143.174M54.0279 134.011H31.3765" stroke="#1E1E1E" stroke-width="3"/>
<circle cx="102" cy="166" r="5.5" stroke="#1E1E1E" stroke-width="3"/>
</svg>
