<svg width="270" height="173" viewBox="0 0 270 173" fill="none" xmlns="http://www.w3.org/2000/svg">
<path d="M166.166 44.4338C166.166 44.4338 167 22.5 157.297 12.9791C147.594 3.45819 112 2 112 2C112 2 126.745 31.3049 134.373 37.8693C142 44.4338 166.166 44.4338 166.166 44.4338Z" fill="#7EE2B0"/>
<path d="M207.921 50.1777C207.921 50.1777 215.426 24.5105 227.161 22.0052C238.896 19.5 267 23.5 267 23.5C267 23.5 249 46.5 238.896 50.1777C228.793 53.8554 207.921 50.1777 207.921 50.1777Z" fill="#7EE2B0"/>
<path d="M166.166 44.4338C166.166 44.4338 167 22.5 157.297 12.9791C147.594 3.45819 112 2 112 2C112 2 126.745 31.3049 134.373 37.8693C142 44.4338 166.166 44.4338 166.166 44.4338ZM166.166 44.4338L185.679 62.4861M166.166 44.4338C166.166 44.4338 139 19.5 146.653 26.3815M207.921 50.1777C207.921 50.1777 215.426 24.5105 227.161 22.0052C238.896 19.5 267 23.5 267 23.5C267 23.5 249 46.5 238.896 50.1777C228.793 53.8554 207.921 50.1777 207.921 50.1777ZM207.921 50.1777L185.679 62.4861M207.921 50.1777C207.921 50.1777 240 32.5 230.163 37.8693M185.679 124.848V62.4861M185.679 124.848L207.921 134.011M185.679 124.848V143.174M185.679 124.848L163.028 134.011M185.679 124.848L207.921 161.5M207.921 134.011V143.174M207.921 134.011H227.161M185.679 143.174V161.5M185.679 143.174H166.166V153.021M166.166 153.021H157.297V161.5H166.166V153.021ZM163.028 134.011L140.376 143.174M163.028 134.011H140.376" stroke="#1E1E1E" stroke-width="3"/>
<path d="M24.832 119C21.4187 119 18.304 118.424 15.488 117.272C12.672 116.077 10.24 114.456 8.192 112.408C6.18667 110.36 4.62933 107.992 3.52 105.304C2.45333 102.573 1.92 99.672 1.92 96.6C1.92 93.528 2.45333 90.648 3.52 87.96C4.62933 85.2293 6.18667 82.84 8.192 80.792C10.24 78.744 12.672 77.144 15.488 75.992C18.304 74.7973 21.4187 74.2 24.832 74.2H30.592V79.64H25.024C22.592 79.64 20.352 80.0667 18.304 80.92C16.256 81.7733 14.464 82.968 12.928 84.504C11.4347 86.04 10.2613 87.832 9.408 89.88C8.55467 91.928 8.128 94.168 8.128 96.6C8.128 98.9893 8.55467 101.229 9.408 103.32C10.2613 105.368 11.4347 107.16 12.928 108.696C14.464 110.232 16.256 111.427 18.304 112.28C20.352 113.133 22.592 113.56 25.024 113.56H30.592V119H24.832ZM37.355 119V95.64C37.355 92.7387 38.1657 90.4773 39.787 88.856C41.451 87.192 43.7337 86.36 46.635 86.36H53.355V91.416H47.723C46.315 91.416 45.2057 91.8213 44.395 92.632C43.627 93.4427 43.243 94.5733 43.243 96.024V119H37.355ZM58.797 119V86.36H64.749V119H58.797ZM61.805 81.176C60.7383 81.176 59.7997 80.792 58.989 80.024C58.221 79.2133 57.837 78.2747 57.837 77.208C57.837 76.1413 58.221 75.224 58.989 74.456C59.7997 73.6453 60.7383 73.24 61.805 73.24C62.8717 73.24 63.789 73.6453 64.557 74.456C65.3677 75.224 65.773 76.1413 65.773 77.208C65.773 78.2747 65.3677 79.2133 64.557 80.024C63.789 80.792 62.8717 81.176 61.805 81.176ZM87.807 119.768C86.3563 119.768 85.0337 119.363 83.839 118.552C82.687 117.699 81.8337 116.504 81.279 114.968L70.655 86.36H77.119L86.591 112.792C86.7617 113.219 86.9537 113.517 87.167 113.688C87.3803 113.859 87.615 113.944 87.871 113.944C88.1697 113.944 88.4043 113.859 88.575 113.688C88.7883 113.517 88.9803 113.219 89.151 112.792L98.687 86.36H105.023L94.399 114.968C93.8017 116.504 92.927 117.699 91.775 118.552C90.623 119.363 89.3003 119.768 87.807 119.768ZM126.281 119.768C123.337 119.768 120.691 119.171 118.345 117.976C116.041 116.739 114.227 115.032 112.905 112.856C111.625 110.68 110.985 108.141 110.985 105.24V86.36H116.937V105.176C116.937 107.139 117.363 108.845 118.217 110.296C119.07 111.704 120.201 112.792 121.609 113.56C123.059 114.328 124.595 114.712 126.217 114.712C127.881 114.712 129.417 114.328 130.825 113.56C132.275 112.792 133.427 111.704 134.281 110.296C135.177 108.845 135.625 107.139 135.625 105.176V86.36H141.576V105.24C141.576 108.141 140.915 110.68 139.593 112.856C138.27 115.032 136.457 116.739 134.153 117.976C131.849 119.171 129.225 119.768 126.281 119.768ZM150.474 119V113.944H166.09C167.114 113.944 167.989 113.731 168.714 113.304C169.482 112.835 170.058 112.237 170.442 111.512C170.826 110.787 171.018 110.019 171.018 109.208C171.018 108.44 170.847 107.736 170.506 107.096C170.165 106.413 169.631 105.88 168.906 105.496C168.223 105.069 167.391 104.856 166.41 104.856H159.818C157.727 104.856 155.893 104.515 154.314 103.832C152.778 103.107 151.562 102.061 150.666 100.696C149.813 99.3307 149.386 97.6667 149.386 95.704C149.386 94.04 149.791 92.504 150.602 91.096C151.413 89.688 152.543 88.5573 153.994 87.704C155.445 86.808 157.109 86.36 158.986 86.36H174.026V91.416H159.562C158.239 91.416 157.194 91.8213 156.426 92.632C155.658 93.4427 155.274 94.4027 155.274 95.512C155.274 96.5787 155.658 97.5173 156.426 98.328C157.237 99.096 158.367 99.48 159.818 99.48H166.09C168.437 99.48 170.399 99.864 171.978 100.632C173.599 101.357 174.815 102.424 175.626 103.832C176.479 105.24 176.906 106.968 176.906 109.016C176.906 110.765 176.479 112.408 175.626 113.944C174.773 115.437 173.578 116.653 172.042 117.592C170.549 118.531 168.799 119 166.794 119H150.474Z" fill="#1E1E1E"/>
<path d="M106.392 82.288C105.464 82.288 104.616 82.144 103.848 81.856C103.08 81.552 102.416 81.112 101.856 80.536C101.296 79.96 100.856 79.272 100.536 78.472C100.232 77.656 100.08 76.744 100.08 75.736C100.08 74.456 100.336 73.352 100.848 72.424C101.376 71.48 102.088 70.752 102.984 70.24C103.896 69.728 104.912 69.472 106.032 69.472C106.656 69.472 107.248 69.576 107.808 69.784C108.384 69.992 108.896 70.28 109.344 70.648C109.792 71.016 110.144 71.448 110.4 71.944H110.448V64.48H112.656V75.808C112.656 77.168 112.376 78.336 111.816 79.312C111.272 80.272 110.528 81.008 109.584 81.52C108.656 82.032 107.592 82.288 106.392 82.288ZM106.392 80.392C107.144 80.392 107.824 80.208 108.432 79.84C109.04 79.472 109.52 78.952 109.872 78.28C110.24 77.608 110.424 76.816 110.424 75.904C110.424 74.976 110.24 74.176 109.872 73.504C109.52 72.816 109.04 72.288 108.432 71.92C107.824 71.552 107.136 71.368 106.368 71.368C105.616 71.368 104.928 71.56 104.304 71.944C103.696 72.328 103.208 72.856 102.84 73.528C102.488 74.2 102.312 74.984 102.312 75.88C102.312 76.808 102.496 77.608 102.864 78.28C103.232 78.952 103.72 79.472 104.328 79.84C104.952 80.208 105.64 80.392 106.392 80.392ZM116.08 82V69.76H118.312V82H116.08ZM117.208 67.816C116.808 67.816 116.456 67.672 116.152 67.384C115.864 67.08 115.72 66.728 115.72 66.328C115.72 65.928 115.864 65.584 116.152 65.296C116.456 64.992 116.808 64.84 117.208 64.84C117.608 64.84 117.952 64.992 118.24 65.296C118.544 65.584 118.696 65.928 118.696 66.328C118.696 66.728 118.544 67.08 118.24 67.384C117.952 67.672 117.608 67.816 117.208 67.816ZM123.647 86.872V84.976H129.647C130.239 84.976 130.695 84.8 131.015 84.448C131.351 84.096 131.519 83.632 131.519 83.056V79.696H131.471C131.167 80.16 130.799 80.576 130.367 80.944C129.935 81.312 129.439 81.608 128.879 81.832C128.319 82.04 127.687 82.144 126.983 82.144C125.831 82.144 124.815 81.88 123.935 81.352C123.055 80.808 122.367 80.064 121.871 79.12C121.375 78.16 121.127 77.064 121.127 75.832C121.127 74.632 121.375 73.552 121.871 72.592C122.367 71.632 123.079 70.872 124.007 70.312C124.951 69.752 126.087 69.472 127.415 69.472C128.695 69.472 129.807 69.744 130.751 70.288C131.695 70.832 132.423 71.592 132.935 72.568C133.463 73.528 133.727 74.656 133.727 75.952V83.2C133.727 84.32 133.399 85.208 132.743 85.864C132.087 86.536 131.191 86.872 130.055 86.872H123.647ZM127.391 80.248C128.207 80.248 128.919 80.056 129.527 79.672C130.151 79.288 130.631 78.768 130.967 78.112C131.319 77.44 131.495 76.688 131.495 75.856C131.495 75.008 131.327 74.248 130.991 73.576C130.655 72.904 130.183 72.376 129.575 71.992C128.967 71.592 128.239 71.392 127.391 71.392C126.559 71.392 125.839 71.592 125.231 71.992C124.639 72.376 124.175 72.912 123.839 73.6C123.519 74.272 123.359 75.032 123.359 75.88C123.359 76.68 123.519 77.416 123.839 78.088C124.175 78.744 124.639 79.272 125.231 79.672C125.839 80.056 126.559 80.248 127.391 80.248ZM137.15 82V69.76H139.382V82H137.15ZM138.278 67.816C137.878 67.816 137.526 67.672 137.222 67.384C136.934 67.08 136.79 66.728 136.79 66.328C136.79 65.928 136.934 65.584 137.222 65.296C137.526 64.992 137.878 64.84 138.278 64.84C138.678 64.84 139.022 64.992 139.31 65.296C139.614 65.584 139.766 65.928 139.766 66.328C139.766 66.728 139.614 67.08 139.31 67.384C139.022 67.672 138.678 67.816 138.278 67.816ZM147.045 82C145.957 82 145.101 81.688 144.477 81.064C143.869 80.44 143.565 79.592 143.565 78.52V66.688H145.773V78.376C145.773 78.904 145.917 79.328 146.205 79.648C146.509 79.952 146.925 80.104 147.453 80.104H149.925V82H147.045ZM141.453 71.656V69.76H149.973V71.656H141.453ZM157.356 82.288C156.172 82.288 155.148 82.008 154.284 81.448C153.42 80.872 152.756 80.096 152.292 79.12C151.828 78.144 151.596 77.064 151.596 75.88C151.596 74.68 151.852 73.6 152.364 72.64C152.876 71.664 153.612 70.896 154.572 70.336C155.532 69.76 156.684 69.472 158.028 69.472C159.324 69.472 160.436 69.752 161.364 70.312C162.292 70.872 163.004 71.632 163.5 72.592C164.012 73.552 164.268 74.624 164.268 75.808V82H162.036V79.504H161.988C161.748 79.968 161.42 80.416 161.004 80.848C160.604 81.264 160.1 81.608 159.492 81.88C158.884 82.152 158.172 82.288 157.356 82.288ZM157.932 80.392C158.732 80.392 159.436 80.2 160.044 79.816C160.668 79.416 161.148 78.872 161.484 78.184C161.836 77.48 162.012 76.696 162.012 75.832C162.012 74.984 161.844 74.224 161.508 73.552C161.188 72.88 160.724 72.352 160.116 71.968C159.508 71.568 158.796 71.368 157.98 71.368C157.116 71.368 156.372 71.568 155.748 71.968C155.14 72.368 154.668 72.912 154.332 73.6C154.012 74.272 153.852 75.04 153.852 75.904C153.852 76.736 154.012 77.496 154.332 78.184C154.652 78.856 155.116 79.392 155.724 79.792C156.332 80.192 157.068 80.392 157.932 80.392ZM167.783 82V64.48H169.991V82H167.783Z" fill="#1E1E1E"/>
<circle cx="211" cy="166" r="5.5" stroke="#1E1E1E" stroke-width="3"/>
</svg>
