<svg width="147" height="164" viewBox="0 0 147 164" fill="none" xmlns="http://www.w3.org/2000/svg">
<path d="M111.161 21.5052L91.9213 49.6777H122.896L142 25.8815L111.161 21.5052Z" fill="#7EE2B0"/>
<path d="M50.1663 43.9338L41.2968 12.4791L5 4L18.3725 37.3693L50.1663 43.9338Z" fill="#7EE2B0"/>
<path d="M69.6793 124.348V61.9861M69.6793 124.348L91.9213 133.511M69.6793 124.348V142.674M69.6793 124.348L47.0279 133.511M69.6793 124.348L91.9213 161M69.6793 61.9861L91.9213 49.6777M69.6793 61.9861L50.1663 43.9338M30.6534 25.8815L50.1663 43.9338M114.163 37.3693L91.9213 49.6777M91.9213 49.6777L111.161 21.5052L142 25.8815L122.896 49.6777H91.9213ZM50.1663 43.9338L41.2968 12.4791L5 4L18.3725 37.3693L50.1663 43.9338ZM91.9213 142.674V133.511M91.9213 133.511H111.161M69.6793 161V142.674M69.6793 142.674H50.1663V152.521M50.1663 152.521H41.2968V161H50.1663V152.521ZM24.3765 142.674L47.0279 133.511M47.0279 133.511H24.3765" stroke="#161616" stroke-width="5"/>
</svg>
